<?xml version="1.0" standalone="no"?>
<!DOCTYPE svg PUBLIC "-//W3C//DTD SVG 20010904//EN"
 "http://www.w3.org/TR/2001/REC-SVG-20010904/DTD/svg10.dtd">
<svg version="1.0" xmlns="http://www.w3.org/2000/svg"
 width="793.000000pt" height="793.000000pt" viewBox="0 0 793.000000 793.000000"
 preserveAspectRatio="xMidYMid meet">
<metadata>
Created by potrace 1.11, written by Peter Selinger 2001-2013
</metadata>
<g transform="translate(0.000000,793.000000) scale(0.100000,-0.100000)"
fill="#000000" stroke="none">
<path d="M2489 7110 l-1554 -679 0 -2456 0 -2457 1445 -664 c795 -366 1495
-687 1555 -715 l110 -50 1430 679 1430 679 2 2509 3 2509 -1407 650 c-773 358
-1419 655 -1434 662 -25 10 -149 -42 -1580 -667z m2688 -681 c648 -292 1181
-534 1186 -538 4 -4 6 -444 5 -978 l-3 -971 -605 347 -605 347 -18 229 c-14
187 -21 232 -34 242 -9 7 -263 146 -564 308 l-548 296 -456 -322 -456 -322
118 -62 c65 -33 805 -416 1646 -850 l1527 -788 0 -672 0 -672 -1225 -591
-1226 -590 -1154 536 -1155 537 0 923 0 922 33 -13 c17 -7 288 -119 602 -247
314 -128 572 -235 574 -236 2 -2 -11 -103 -29 -224 -19 -128 -29 -225 -24
-230 14 -13 1139 -530 1153 -530 16 0 1011 453 1011 460 0 3 -747 358 -1660
790 l-1660 785 2 788 3 789 1180 534 c649 293 1186 533 1192 533 7 1 543 -238
1190 -530z"/>
</g>
</svg>
